<svg version="1" xmlns="http://www.w3.org/2000/svg" width="320" height="320" viewBox="0 0 240.000000 240.000000"><path d="M0 120v120h240V0H0v120zm228 0v108H12V12h216v108z"/><path d="M81.9 61c-.1.5-.1 2.6-.1 4.5s0 3.9.1 4.5c.1.6 11.7.9 30.2.9 16.6 0 30.3.2 30.5.4.2.2-1.8 3.7-4.4 7.8-6.1 9.4-29.2 45-35.7 55.1-2.7 4.3-8.1 12.6-11.9 18.5-3.8 6-7.7 12-8.7 13.5-1.3 1.9-1.9 4.5-1.9 8.3v5.5h80v-10.9h-32.1c-17.6 0-32.2-.1-32.4-.3-.1-.2 5.7-9.5 13-20.8 12.3-19 17.6-27.1 41.2-63.8 8.7-13.5 9.1-14.6 8.4-23-.1-1.6-76-1.8-76.2-.2z"/></svg>