<svg xmlns="http://www.w3.org/2000/svg" xmlns:xlink="http://www.w3.org/1999/xlink" viewBox="0 0 154.68 154.68"><defs><style>.cls-1{fill:none;}.cls-2{fill:#62a5a2;}.cls-3{fill:#ea692b;}.cls-4{fill:#f3dbbd;}.cls-5{fill:#f6f3cf;}.cls-6{fill:#e96332;}.cls-7{fill:#a84720;}.cls-8{fill:#3b3e43;}.cls-9{fill:#fff;}.cls-10{clip-path:url(#clip-path);}.cls-11{fill:#3d342f;}</style><clipPath id="clip-path"><path class="cls-1" d="M115.56,85.35A37.74,37.74,0,0,0,77.89,47.61h-.25A37.74,37.74,0,0,0,40,85.35c0,.49-9.06,10.72-2.87,22.94,3.43,6.75,22.33,14,40.34,14.17,19.1.21,37.36-7,41-14.17C124.63,96.07,115.56,85.84,115.56,85.35Z"/></clipPath></defs><title>avatar1</title><g id="Layer_2" data-name="Layer 2"><g id="background"><path class="cls-2" d="M154.68,77.34A77.34,77.34,0,1,1,77.34,0,77.34,77.34,0,0,1,154.68,77.34Z"/></g><g id="object"><path class="cls-3" d="M91.68,42.73c-4.33,6.1-2.51,14.81,4,19.47s15.38,3.49,19.71-2.6,5.13-24.12,2.42-26.78S96,36.64,91.68,42.73Z"/><path class="cls-4" d="M94.94,47.05c-2.42,4.06-.84,9.46,3.53,12.07s9.87,1.43,12.3-2.63,5.71-17.91,2.6-19.49S97.36,43,94.94,47.05Z"/><path class="cls-3" d="M65.18,42.73c4.32,6.1,2.51,14.81-4.05,19.47s-15.39,3.49-19.71-2.6S36.29,35.48,39,32.82,60.85,36.64,65.18,42.73Z"/><path class="cls-4" d="M61.91,47.05c2.42,4.06.84,9.46-3.53,12.07s-9.87,1.43-12.29-2.63S40.37,38.58,43.48,37,59.49,43,61.91,47.05Z"/><path class="cls-5" d="M127,100.31a11.59,11.59,0,0,0-2.3-1.24l.68.41A15.28,15.28,0,0,1,127,100.31Z"/><path class="cls-5" d="M127,100.31a15.28,15.28,0,0,0-1.62-.83A16.82,16.82,0,0,0,127,100.31Z"/><path class="cls-5" d="M30.71,99.07a11.59,11.59,0,0,0-2.3,1.24A14.19,14.19,0,0,1,30,99.48C30.24,99.36,30.47,99.22,30.71,99.07Z"/><path class="cls-5" d="M28.41,100.31A16.14,16.14,0,0,0,30,99.48,14.19,14.19,0,0,0,28.41,100.31Z"/><path class="cls-1" d="M50.65,99.14A50.15,50.15,0,0,1,60,103.31a.59.59,0,0,0,0-.14A36.44,36.44,0,0,0,50.65,99.14Z"/><path class="cls-6" d="M77.66,47.61Z"/><path class="cls-7" d="M77.74,47.61h0Z"/><path class="cls-3" d="M115.56,85.35A37.74,37.74,0,0,0,77.89,47.61h-.25A37.74,37.74,0,0,0,40,85.35c0,.49-9.06,10.72-2.87,22.94,3.43,6.75,22.33,14,40.34,14.17,19.1.21,37.36-7,41-14.17C124.63,96.07,115.56,85.84,115.56,85.35Z"/><path class="cls-8" d="M87.21,79.36A5.79,5.79,0,1,0,93,73.57,5.79,5.79,0,0,0,87.21,79.36Z"/><path class="cls-9" d="M91.69,74.82a3,3,0,1,0,3-3A3,3,0,0,0,91.69,74.82Z"/><path class="cls-8" d="M70.09,79.36a5.79,5.79,0,1,1-5.78-5.79A5.78,5.78,0,0,1,70.09,79.36Z"/><path class="cls-9" d="M65.61,74.82a3,3,0,1,1-3-3A3,3,0,0,1,65.61,74.82Z"/><g class="cls-10"><path class="cls-4" d="M105.57,111.39c0,8.79-12.59,15.92-28.13,15.92s-28.13-7.13-28.13-15.92,12.6-15.91,28.13-15.91S105.57,102.6,105.57,111.39Z"/></g><path class="cls-8" d="M85.62,95.54c0,2.93-3.42,6.58-7.64,6.58s-7.65-3.65-7.65-6.58,3.42-5.31,7.65-5.31S85.62,92.6,85.62,95.54Z"/><path class="cls-8" d="M70,111.09c-2.1,0-4.42-1-6.93-3.09a.79.79,0,0,1-.12-1.11.8.8,0,0,1,1.11-.11c2.94,2.41,5.47,3.23,7.52,2.45,4.09-1.55,5.31-8.88,5.32-9a.79.79,0,0,1,1.55.25c0,.34-1.38,8.29-6.31,10.17A6,6,0,0,1,70,111.09Z"/><path class="cls-8" d="M84.56,111.77a4.92,4.92,0,0,1-1.86-.35c-4.69-1.88-5.57-10.57-5.6-10.94a.78.78,0,1,1,1.56-.15c.22,2.25,1.47,8.37,4.63,9.63,1.73.7,3.93-.1,6.55-2.38a.79.79,0,1,1,1,1.19C88.56,110.77,86.45,111.77,84.56,111.77Z"/><path class="cls-9" d="M83,94c-.18.7-1.23,1-2.33.76s-1.86-1.08-1.69-1.78,1.22-1.05,2.33-.77S83.14,93.24,83,94Z"/><path class="cls-11" d="M58.59,101.72a.82.82,0,0,1-.59-.24c-.12-.11-9.24-8.7-35-12.64a.83.83,0,0,1-.7-1,.84.84,0,0,1,1-.71c26.43,4,35.55,12.73,35.93,13.1a.84.84,0,0,1,0,1.19A.83.83,0,0,1,58.59,101.72Z"/><path class="cls-11" d="M57.06,105.11a.77.77,0,0,1-.41-.11c-.14-.07-11.13-6.07-37.06-3.38a.84.84,0,0,1-.18-1.68C46,97.17,57,103.27,57.48,103.54a.84.84,0,0,1,.32,1.15A.85.85,0,0,1,57.06,105.11Z"/><path class="cls-11" d="M19.22,114.34a.85.85,0,0,1-.27-1.65c25.28-8.66,37.4-5.19,37.9-5a.84.84,0,1,1-.48,1.61h0c-.12,0-12.18-3.44-36.88,5A.86.86,0,0,1,19.22,114.34Z"/><path class="cls-11" d="M96.09,103a.85.85,0,0,1-.59-1.45c.37-.37,9.5-9.06,35.92-13.1a.85.85,0,1,1,.26,1.67c-25.89,4-34.91,12.55-35,12.63A.81.81,0,0,1,96.09,103Z"/><path class="cls-11" d="M97.61,106.42a.84.84,0,0,1-.73-.42.86.86,0,0,1,.31-1.16c.46-.26,11.48-6.36,38.07-3.59a.84.84,0,1,1-.17,1.68c-26-2.7-36.95,3.32-37.06,3.38A.8.8,0,0,1,97.61,106.42Z"/><path class="cls-11" d="M135.46,115.65a.92.92,0,0,1-.28-.05c-24.69-8.46-36.75-5-36.87-5a.85.85,0,0,1-.49-1.62c.51-.15,12.62-3.62,37.91,5a.85.85,0,0,1-.27,1.65Z"/></g></g></svg>