<svg xmlns="http://www.w3.org/2000/svg" xmlns:xlink="http://www.w3.org/1999/xlink" viewBox="0 0 154.68 154.68"><defs><style>.cls-1{fill:none;}.cls-2{fill:#62a5a2;}.cls-3{fill:#d45f26;}.cls-4{fill:#f3dbbd;}.cls-5{fill:#e96332;}.cls-6{fill:#a84720;}.cls-7{fill:#ea692b;}.cls-8{fill:#3b3e43;}.cls-9{fill:#fff;}.cls-10{clip-path:url(#clip-path);}</style><clipPath id="clip-path"><path class="cls-1" d="M113,93.48A35.54,35.54,0,0,0,77.54,57.94H77.3A35.54,35.54,0,0,0,41.83,93.48c0,.47-8.54,10.1-2.71,21.61,3.23,6.36,21,13.16,38,13.34,18,.2,35.18-6.6,38.6-13.34C121.55,103.58,113,94,113,93.48Z"/></clipPath></defs><title>fox</title><g id="Layer_2" data-name="Layer 2"><g id="background"><circle class="cls-2" cx="77.34" cy="77.34" r="77.34"/></g><g id="object"><path class="cls-3" d="M91.24,65.46C98.4,36.41,122,26.24,122,26.24s16.88,44.09-15.4,54.6Z"/><path class="cls-4" d="M94.68,68.13c9.23-27.59,24-32.41,24-32.41s12.77,26.35-15.29,42.43Z"/><path class="cls-3" d="M63.44,65.46c-7.17-29-30.79-39.22-30.79-39.22S15.76,70.33,48,80.84Z"/><path class="cls-4" d="M60,68.13C50.76,40.54,36,35.72,36,35.72S23.21,62.07,51.27,78.15Z"/><path class="cls-5" d="M77.32,57.94Z"/><path class="cls-6" d="M77.39,57.94h0Z"/><path class="cls-7" d="M113,93.48A35.54,35.54,0,0,0,77.54,57.94H77.3A35.54,35.54,0,0,0,41.83,93.48c0,.47-8.54,10.1-2.71,21.61,3.23,6.36,21,13.16,38,13.34,18,.2,35.18-6.6,38.6-13.34C121.55,103.58,113,94,113,93.48Z"/><path class="cls-8" d="M86.31,87.84a5.45,5.45,0,1,0,5.45-5.45A5.45,5.45,0,0,0,86.31,87.84Z"/><path class="cls-9" d="M90.53,83.56A2.87,2.87,0,1,0,93.4,80.7,2.87,2.87,0,0,0,90.53,83.56Z"/><path class="cls-8" d="M70.2,87.84a5.45,5.45,0,1,1-5.45-5.45A5.45,5.45,0,0,1,70.2,87.84Z"/><path class="cls-9" d="M66,83.56a2.86,2.86,0,1,1-2.86-2.86A2.86,2.86,0,0,1,66,83.56Z"/><path class="cls-1" d="M113,93.48A35.54,35.54,0,0,0,77.54,57.94H77.3A35.54,35.54,0,0,0,41.83,93.48c0,.47-8.54,10.1-2.71,21.61,3.23,6.36,21,13.16,38,13.34,18,.2,35.18-6.6,38.6-13.34C121.55,103.58,113,94,113,93.48Z"/><path class="cls-8" d="M86.64,111.84c0,3.35-3.91,7.53-8.74,7.53s-8.74-4.18-8.74-7.53,3.91-6.07,8.74-6.07S86.64,108.49,86.64,111.84Z"/><path class="cls-9" d="M83.59,110c-.2.8-1.39,1.19-2.66.87s-2.13-1.23-1.92-2,1.39-1.19,2.66-.87S83.8,109.22,83.59,110Z"/><g class="cls-10"><path class="cls-4" d="M70.41,131.75c-2.85,3.66-13.92-.19-24.73-8.61s-17.25-18.2-14.4-21.86,13.92.2,24.72,8.61S73.26,128.09,70.41,131.75Z"/><path class="cls-4" d="M84.62,130.29c2.83,3.45,14.14-.37,25.26-8.54s17.83-17.6,15-21.06-14.15.37-25.27,8.54S81.78,126.83,84.62,130.29Z"/></g></g></g></svg>