<svg xmlns="http://www.w3.org/2000/svg" xmlns:xlink="http://www.w3.org/1999/xlink" viewBox="0 0 154.68 159.02"><defs><style>.cls-1,.cls-10{fill:none;}.cls-2{fill:#62a5a2;}.cls-3{fill:#ea692b;}.cls-4{fill:#e39335;}.cls-5{fill:#8a603c;}.cls-6{clip-path:url(#clip-path);}.cls-7{fill:#f3dbbd;}.cls-8{fill:#3b3e43;}.cls-9{fill:#fff;}.cls-10{stroke:#3d342f;stroke-linecap:round;stroke-miterlimit:10;stroke-width:2px;}</style><clipPath id="clip-path"><path class="cls-1" d="M109.46,79.08C104.72,54.47,97.52,47.83,77,47.83h-.55c-20.52,0-27.72,6.64-32.46,31.25-7.1,9.77-6.05,39.52,31.1,39.52h3.27C115.51,118.6,116.56,88.85,109.46,79.08Z"/></clipPath></defs><title>lion</title><g id="Layer_2" data-name="Layer 2"><g id="background"><path class="cls-2" d="M154.68,77.34A77.34,77.34,0,1,1,77.34,0,77.34,77.34,0,0,1,154.68,77.34Z"/></g><g id="object"><path class="cls-3" d="M134,79.48c0,31.28-26.73,52.36-56.41,52.36S20.69,110.76,20.69,79.48a56.65,56.65,0,1,1,113.29,0Z"/><path class="cls-4" d="M70.87,55a16,16,0,1,1-16-16A16,16,0,0,1,70.87,55Z"/><path class="cls-5" d="M64.47,55a9.61,9.61,0,1,1-9.61-9.61A9.61,9.61,0,0,1,64.47,55Z"/><path class="cls-4" d="M82.58,55a16,16,0,1,0,16-16A16,16,0,0,0,82.58,55Z"/><path class="cls-5" d="M89,55a9.61,9.61,0,1,0,9.61-9.61A9.61,9.61,0,0,0,89,55Z"/><path class="cls-4" d="M109.46,80.24C104.72,56.36,97.52,49.91,77,49.91h-.55c-20.52,0-27.72,6.45-32.46,30.33-7.1,9.48-6.05,38.36,31.1,38.36h3.27C115.51,118.6,116.56,89.72,109.46,80.24Z"/><g class="cls-6"><path class="cls-7" d="M118.48,127c0,17.69-17.24,32-41.4,32s-41.41-14.34-41.41-32S52.92,89.11,77.08,89.11,118.48,109.31,118.48,127Z"/></g><path class="cls-5" d="M65.87,76.93a6.31,6.31,0,1,1-6.31-6.31A6.31,6.31,0,0,1,65.87,76.93Z"/><path class="cls-8" d="M62.76,77a3.2,3.2,0,1,1-3.2-3.19A3.2,3.2,0,0,1,62.76,77Z"/><path class="cls-9" d="M60.28,74.48A1.68,1.68,0,1,1,58.6,72.8,1.68,1.68,0,0,1,60.28,74.48Z"/><path class="cls-8" d="M85.16,91.6c0,2.93-3.41,5.39-7.61,5.39s-7.62-2.46-7.62-5.39,3.41-5.29,7.62-5.29S85.16,88.68,85.16,91.6Z"/><path class="cls-8" d="M69.6,107.1c-2.09,0-4.4-1-6.9-3.08a.77.77,0,0,1-.11-1.1.79.79,0,0,1,1.1-.11c2.92,2.4,5.45,3.22,7.5,2.44,4.07-1.55,5.28-8.85,5.29-8.92a.78.78,0,1,1,1.54.25c0,.33-1.37,8.26-6.28,10.13A6,6,0,0,1,69.6,107.1Z"/><path class="cls-8" d="M84.11,107.79a4.89,4.89,0,0,1-1.86-.36c-4.67-1.87-5.54-10.53-5.58-10.9a.78.78,0,0,1,.7-.85.76.76,0,0,1,.85.7c.22,2.24,1.47,8.34,4.61,9.6,1.73.69,3.93-.11,6.54-2.37a.77.77,0,0,1,1.1.08.78.78,0,0,1-.08,1.1C88.09,106.78,86,107.79,84.11,107.79Z"/><path class="cls-9" d="M82.51,90c-.18.7-1.22,1-2.32.76S78.33,89.7,78.51,89s1.21-1,2.32-.76S82.68,89.32,82.51,90Z"/><path class="cls-5" d="M87.58,76.93a6.31,6.31,0,1,0,6.3-6.31A6.31,6.31,0,0,0,87.58,76.93Z"/><path class="cls-8" d="M90.69,77a3.2,3.2,0,1,0,3.19-3.19A3.19,3.19,0,0,0,90.69,77Z"/><path class="cls-9" d="M93.17,74.48a1.68,1.68,0,1,0,1.67-1.68A1.67,1.67,0,0,0,93.17,74.48Z"/><path class="cls-10" d="M61.92,93.89s-8.55-5.4-32.06-5.84"/><path class="cls-10" d="M60.83,96.43S50.77,93,27.61,97.38"/><path class="cls-10" d="M60.74,99.42S49.88,98,28.29,106.36"/><path class="cls-10" d="M92.32,94.67s8.55-5.39,32.06-5.84"/><path class="cls-10" d="M93.41,97.21s10.06-3.42,33.22,1"/><path class="cls-10" d="M93.5,100.21s10.86-1.48,32.45,6.94"/></g></g></svg>