<svg xmlns="http://www.w3.org/2000/svg" viewBox="0 0 154.68 154.68"><defs><style>.cls-1{fill:#185787;}.cls-2{fill:#7b5735;}.cls-3{fill:#f3dbbd;}.cls-4{fill:#8a603c;}.cls-5{fill:#d1bea5;}.cls-6{fill:#3d342f;}.cls-7{fill:#fff;}</style></defs><title>monkey</title><g id="Layer_2" data-name="Layer 2"><g id="background"><circle class="cls-1" cx="77.34" cy="77.34" r="77.34" transform="translate(-11.79 140.74) rotate(-80.43)"/></g><g id="object"><path class="cls-2" d="M138.37,75.29a14.94,14.94,0,1,1-14.94-14.93A14.94,14.94,0,0,1,138.37,75.29Z"/><path class="cls-3" d="M133,75.29a9.57,9.57,0,1,1-9.57-9.57A9.57,9.57,0,0,1,133,75.29Z"/><path class="cls-2" d="M46.18,73.38A14.94,14.94,0,1,1,31.25,58.45,14.94,14.94,0,0,1,46.18,73.38Z"/><path class="cls-3" d="M40.82,73.38a9.58,9.58,0,1,1-9.57-9.57A9.58,9.58,0,0,1,40.82,73.38Z"/><path class="cls-4" d="M123.92,77.19A46.92,46.92,0,1,1,77,30.27,46.92,46.92,0,0,1,123.92,77.19Z"/><path class="cls-3" d="M116.71,73.68a20.43,20.43,0,0,0-39.6-7.15A20.43,20.43,0,1,0,57.8,93.89l.93,0A29.09,29.09,0,0,0,56.65,104a20.43,20.43,0,0,0,40.86,0,31.64,31.64,0,0,0-1.8-10l.49,0A20.44,20.44,0,0,0,116.71,73.68Z"/><path class="cls-5" d="M85.54,74.19A10.56,10.56,0,1,0,96.1,63.63,10.55,10.55,0,0,0,85.54,74.19Z"/><path class="cls-6" d="M89.39,74.27A6.28,6.28,0,1,0,95.67,68,6.28,6.28,0,0,0,89.39,74.27Z"/><path class="cls-7" d="M94.77,69.09a3,3,0,1,0,3-3A3,3,0,0,0,94.77,69.09Z"/><path class="cls-5" d="M68.82,74.19A10.56,10.56,0,1,1,58.26,63.63,10.55,10.55,0,0,1,68.82,74.19Z"/><path class="cls-6" d="M65,74.27A6.28,6.28,0,1,1,58.69,68,6.28,6.28,0,0,1,65,74.27Z"/><path class="cls-7" d="M59.59,69.09a3,3,0,1,1-3-3A3,3,0,0,1,59.59,69.09Z"/><path class="cls-6" d="M81.61,108.4a4,4,0,1,1-4-4A4,4,0,0,1,81.61,108.4Z"/></g></g></svg>