<svg xmlns="http://www.w3.org/2000/svg" viewBox="0 0 154.68 154.68"><defs><style>.cls-1{fill:#d8d423;}.cls-2{fill:#313439;}.cls-3{fill:#f7f1e6;}.cls-4{fill:#3b3e43;}.cls-5{fill:#fff;}</style></defs><title>panda</title><g id="Layer_2" data-name="Layer 2"><g id="background"><path class="cls-1" d="M154.68,77.34A77.34,77.34,0,1,1,77.34,0,77.34,77.34,0,0,1,154.68,77.34Z"/></g><g id="object"><circle class="cls-2" cx="43.04" cy="48.13" r="20.01" transform="translate(-21.43 44.53) rotate(-45)"/><path class="cls-2" d="M131.64,48.13a20,20,0,1,1-20-20A20,20,0,0,1,131.64,48.13Z"/><path class="cls-3" d="M125.88,81.52c5.46,23.92,0,45-48.31,45s-50.32-18.73-45.41-45c4.69-25.13,18.72-44.23,45.41-44.23S120.19,56.58,125.88,81.52Z"/><path class="cls-4" d="M89.69,87.26c2.57,8.64,13.17,10,19.14,6.27s7.08-12.74,2.48-20-13.17-10-19.14-6.27S87.25,79,89.69,87.26Z"/><path class="cls-4" d="M87.71,99.67c0,3.29-3.84,7.38-8.58,7.38s-8.57-4.09-8.57-7.38,3.84-6,8.57-6S87.71,96.38,87.71,99.67Z"/><path class="cls-4" d="M70.19,117.12c-2.35,0-5-1.16-7.77-3.47a.88.88,0,1,1,1.11-1.36c3.3,2.7,6.14,3.62,8.44,2.74,4.59-1.74,6-10,6-10a.88.88,0,0,1,1.74.28c-.06.38-1.54,9.3-7.07,11.41A6.77,6.77,0,0,1,70.19,117.12Z"/><path class="cls-4" d="M86.52,117.89a5.71,5.71,0,0,1-2.09-.4c-5.26-2.11-6.24-11.86-6.28-12.28a.88.88,0,0,1,1.75-.16c.24,2.52,1.64,9.39,5.19,10.81,1.94.77,4.41-.13,7.35-2.68a.89.89,0,0,1,1.24.09.88.88,0,0,1-.08,1.24C91,116.76,88.63,117.89,86.52,117.89Z"/><path class="cls-5" d="M93.87,81.43a7.1,7.1,0,1,0,7.1-7.1A7.1,7.1,0,0,0,93.87,81.43Z"/><path class="cls-4" d="M97.37,81.49A3.6,3.6,0,1,0,101,77.9,3.6,3.6,0,0,0,97.37,81.49Z"/><path class="cls-5" d="M100.16,78.67a1.89,1.89,0,1,0,1.89-1.89A1.89,1.89,0,0,0,100.16,78.67Z"/><path class="cls-4" d="M70.28,85.65c-2.57,8.64-13.16,10-19.13,6.26s-7.08-12.73-2.48-20,13.17-10.06,19.14-6.27S72.73,77.43,70.28,85.65Z"/><path class="cls-5" d="M66.43,79.63a7.1,7.1,0,1,1-7.1-7.1A7.1,7.1,0,0,1,66.43,79.63Z"/><path class="cls-4" d="M62.92,79.7a3.59,3.59,0,1,1-3.59-3.6A3.59,3.59,0,0,1,62.92,79.7Z"/><path class="cls-5" d="M60.14,76.87A1.89,1.89,0,1,1,58.25,75,1.89,1.89,0,0,1,60.14,76.87Z"/><path class="cls-5" d="M84.72,97.89c-.2.79-1.37,1.17-2.62.85s-2.09-1.21-1.88-2,1.37-1.17,2.61-.85S84.92,97.1,84.72,97.89Z"/></g></g></svg>