<svg xmlns="http://www.w3.org/2000/svg" viewBox="0 0 154.68 154.68"><defs><style>.cls-1{fill:#d8d423;}.cls-2{fill:#e0dcd3;}.cls-3{fill:#bab7b0;}.cls-4{fill:#fff;}.cls-5{fill:#3b3e43;}</style></defs><title>wolf</title><g id="Layer_2" data-name="Layer 2"><g id="background"><path class="cls-1" d="M154.68,77.34A77.34,77.34,0,1,1,77.34,0,77.34,77.34,0,0,1,154.68,77.34Z"/></g><g id="object"><path class="cls-2" d="M128,75c19.83,36.67-8.31,48.51-54,48.51-52,0-61.6-14.72-48.4-48.92C36.92,45.25,57,41.64,75,41.64S113.72,48.66,128,75Z"/><path class="cls-3" d="M124.26,101.12c-4.7,7.79-17.15,9.91-31.83,11.46-7.79-4.7-9.35-32.43-7.43-41.33,2.07-9.52,11.51-16.82,24.08-6.9C116.23,70,129,93.32,124.26,101.12Z"/><path class="cls-3" d="M30.26,102.41c4.7,7.79,23.72,10,33.12,11.07,7.79-4.7,10.6-31.54,8.11-43.64-1.83-8.92-15.32-18.54-27.42-5.28S25.56,94.61,30.26,102.41Z"/><path class="cls-4" d="M93.35,79a8.32,8.32,0,1,0,8.32-8.31A8.31,8.31,0,0,0,93.35,79Z"/><path class="cls-5" d="M97.46,79.09a4.21,4.21,0,1,0,4.21-4.2A4.2,4.2,0,0,0,97.46,79.09Z"/><path class="cls-4" d="M100.72,75.79a2.21,2.21,0,1,0,2.21-2.21A2.21,2.21,0,0,0,100.72,75.79Z"/><path class="cls-4" d="M61.22,76.92A8.32,8.32,0,1,1,52.9,68.6,8.32,8.32,0,0,1,61.22,76.92Z"/><path class="cls-5" d="M57.11,77a4.21,4.21,0,1,1-4.21-4.21A4.21,4.21,0,0,1,57.11,77Z"/><path class="cls-4" d="M53.85,73.68a2.21,2.21,0,1,1-2.21-2.21A2.21,2.21,0,0,1,53.85,73.68Z"/><path class="cls-4" d="M104.33,103.69c0,8.54-16,15.45-29.83,15.45s-25-6.91-25-15.45,11.21-15.44,25-15.44S104.33,95.16,104.33,103.69Z"/><path class="cls-5" d="M87.29,102.67c0,4-4.66,8.94-10.39,8.94s-10.39-5-10.39-8.94,4.65-7.22,10.39-7.22S87.29,98.68,87.29,102.67Z"/><path class="cls-4" d="M83.66,100.51c-.24.95-1.66,1.42-3.16,1s-2.53-1.46-2.29-2.42,1.66-1.42,3.17-1S83.91,99.55,83.66,100.51Z"/><path class="cls-2" d="M35.87,31.69c-7.55,3.64.28,27.8.28,27.8L61.73,44.4S43.43,28,35.87,31.69Z"/><path class="cls-3" d="M39,35.22c-5.07,2.45.19,18.69.19,18.69L56.33,43.77S44,32.77,39,35.22Z"/><path class="cls-2" d="M118.7,31.69c7.55,3.64-.28,27.8-.28,27.8L92.84,44.4S111.14,28,118.7,31.69Z"/><path class="cls-3" d="M115.61,35.22c5.08,2.45-.18,18.69-.18,18.69L98.24,43.77S110.54,32.77,115.61,35.22Z"/></g></g></svg>