<svg xmlns="http://www.w3.org/2000/svg" xmlns:xlink="http://www.w3.org/1999/xlink" viewBox="0 0 154.68 154.68"><defs><style>.cls-1{fill:none;}.cls-2{fill:#d8d423;}.cls-3{fill:#e0dcd3;}.cls-4{fill:#313439;}.cls-5{fill:#f7f1e6;}.cls-6{fill:#fff;}.cls-7{clip-path:url(#clip-path);}</style><clipPath id="clip-path"><path class="cls-1" d="M111.66,90.77c0,23.43,6,42.42-34.32,42.42S43,114.2,43,90.77,58,48.35,77.34,48.35,111.66,67.35,111.66,90.77Z"/></clipPath></defs><title>zebra</title><g id="Layer_2" data-name="Layer 2"><g id="background"><path class="cls-2" d="M154.68,77.34A77.34,77.34,0,1,1,77.34,0,77.34,77.34,0,0,1,154.68,77.34Z"/></g><g id="object"><path class="cls-3" d="M65.73,41.76c3,13.78,1.83,25.78-2.73,26.79S52.27,59.2,49.22,45.42s-1.84-25.78,2.72-26.79S62.67,28,65.73,41.76Z"/><path class="cls-4" d="M64,42.14c2.41,10.9,1.45,20.38-2.16,21.18S53.36,55.93,51,45,49.5,24.66,53.1,23.86,61.58,31.25,64,42.14Z"/><path class="cls-3" d="M87.84,41.76C84.78,55.54,86,67.54,90.56,68.55s10.73-9.35,13.78-23.13,1.84-25.78-2.72-26.79S90.89,28,87.84,41.76Z"/><path class="cls-4" d="M89.57,42.14C87.15,53,88.12,62.52,91.72,63.32S100.2,55.93,102.61,45s1.45-20.37-2.15-21.17S92,31.25,89.57,42.14Z"/><path class="cls-5" d="M111.66,90.77c0,27.27,9.5,42.42-34.32,42.42S43,115.41,43,90.77C43,67.35,58,48.35,77.34,48.35S111.66,67.35,111.66,90.77Z"/><ellipse class="cls-4" cx="77.63" cy="117.69" rx="34.81" ry="18.43"/><path class="cls-4" d="M69.56,82.45a4.68,4.68,0,1,1-4.68-4.68A4.68,4.68,0,0,1,69.56,82.45Z"/><path class="cls-6" d="M65.21,78.68a3,3,0,1,1-3-3A3,3,0,0,1,65.21,78.68Z"/><path class="cls-4" d="M85,82.45a4.68,4.68,0,1,0,4.68-4.68A4.68,4.68,0,0,0,85,82.45Z"/><path class="cls-6" d="M89.4,78.68a3,3,0,1,0,3-3A3,3,0,0,0,89.4,78.68Z"/><g class="cls-7"><path class="cls-4" d="M122,86.74l-.26.23c-.17.13-.41.36-.72.57A13.64,13.64,0,0,1,118.51,89a13,13,0,0,1-3.36,1,9.24,9.24,0,0,1-.92.1c-.3,0-.57.07-.86.08a11.08,11.08,0,0,1-1.73,0,12.32,12.32,0,0,1-1.7-.29,9.89,9.89,0,0,1-1.6-.41,10.41,10.41,0,0,1-1.54-.64,15.32,15.32,0,0,1-1.52-.74A14,14,0,0,1,103,86.33c-.28-.24-.51-.49-.66-.63s-.24-.26-.24-.26a2.49,2.49,0,0,1,.21-.27c.14-.16.35-.43.61-.7a13.14,13.14,0,0,1,2.21-1.85,15.36,15.36,0,0,1,1.51-.87,14.16,14.16,0,0,1,1.84-.6,14.55,14.55,0,0,1,2-.36,15,15,0,0,1,2,.06,16.38,16.38,0,0,1,2,.34,9.46,9.46,0,0,1,1,.26c.29.11.58.22.85.35a13.21,13.21,0,0,1,3,1.86,14.05,14.05,0,0,1,2,2c.24.29.41.58.54.75Z"/><path class="cls-4" d="M113,57.08s0,.13-.15.33-.23.52-.43.85a14.87,14.87,0,0,1-1.73,2.46L109.48,62a14.63,14.63,0,0,1-1.37,1.23,17.41,17.41,0,0,1-1.54,1.06,15.47,15.47,0,0,1-1.7.92,16.6,16.6,0,0,1-3.66,1.17,16.8,16.8,0,0,1-1.85.26c-.6,0-1.22,0-1.78,0a17.16,17.16,0,0,1-3-.34c-.38-.06-.71-.17-.92-.22l-.35-.09s0-.14.07-.36a8.44,8.44,0,0,1,.25-.92,10.06,10.06,0,0,1,.51-1.29A15.68,15.68,0,0,1,95,62a13.55,13.55,0,0,1,1.11-1.51,12.56,12.56,0,0,1,1.4-1.43,14.62,14.62,0,0,1,1.66-1.24,11.5,11.5,0,0,1,1.86-1,15.73,15.73,0,0,1,2-.74,12.1,12.1,0,0,1,2.07-.44,15.87,15.87,0,0,1,2-.14,8.92,8.92,0,0,1,1.84.17,14.73,14.73,0,0,1,2.89.84c.37.14.67.3.87.39Z"/><path class="cls-4" d="M123.14,108.58l-.41,0c-.25,0-.64,0-1.08,0s-1,0-1.55,0-1.23-.07-1.9-.15-1.39-.18-2.11-.33-1.46-.34-2.2-.55a20.18,20.18,0,0,1-2.24-.73c-.37-.14-.74-.29-1.1-.46l-1.1-.47a23.62,23.62,0,0,1-2.12-1.1c-.67-.42-1.35-.8-2-1.22a20.84,20.84,0,0,1-1.81-1.36c-.28-.23-.56-.47-.82-.72l-.78-.66a21.7,21.7,0,0,1-2.37-2.52c-.28-.35-.5-.68-.65-.88l-.23-.35.36-.17c.23-.09.57-.26,1-.4a16.89,16.89,0,0,1,3.53-.79c.36,0,.74-.07,1.13-.11l1.16,0a22.08,22.08,0,0,1,2.48.27,13.64,13.64,0,0,1,2.56.62q1.26.43,2.49,1c.41.2.82.38,1.21.6s.76.46,1.14.7a25.9,25.9,0,0,1,2.1,1.55,19.45,19.45,0,0,1,1.77,1.74A16,16,0,0,1,121,104a19.89,19.89,0,0,1,1,1.71,13.53,13.53,0,0,1,.66,1.49,9.49,9.49,0,0,1,.33,1C123.11,108.44,123.14,108.58,123.14,108.58Z"/><path class="cls-4" d="M33.59,87.39l.19-.3c.13-.17.31-.45.56-.74a14.08,14.08,0,0,1,2-2.06,13.74,13.74,0,0,1,3-1.87,9.39,9.39,0,0,1,1.83-.63,16.42,16.42,0,0,1,2-.36,13.72,13.72,0,0,1,2-.09,13,13,0,0,1,2,.28,14.42,14.42,0,0,1,1.86.53,13.69,13.69,0,0,1,1.58.79,13.92,13.92,0,0,1,2.36,1.71c.28.25.51.51.66.66l.23.26s-.08.11-.22.27-.37.42-.64.67a13.83,13.83,0,0,1-2.28,1.79,14.57,14.57,0,0,1-1.52.83,13.43,13.43,0,0,1-1.6.71,12.2,12.2,0,0,1-1.7.47,13.27,13.27,0,0,1-1.78.32,12,12,0,0,1-1.8.07c-.6,0-1.22-.08-1.85-.16a14,14,0,0,1-3.44-1,14.41,14.41,0,0,1-2.54-1.41c-.31-.21-.57-.43-.73-.56Z"/><path class="cls-4" d="M38.6,58.93a3,3,0,0,1,.34-.16c.21-.09.54-.25.93-.38A17.06,17.06,0,0,1,43,57.62a18,18,0,0,1,4.12-.11,13.31,13.31,0,0,1,2.2.37,21.42,21.42,0,0,1,2.2.67A19.56,19.56,0,0,1,55.6,60.6a19.23,19.23,0,0,1,1.7,1.33,19,19,0,0,1,1.42,1.42c.42.48.8.95,1.12,1.39s.58.88.79,1.25.35.69.46.9.15.35.15.35a3.26,3.26,0,0,1-.35.14c-.22.08-.56.22-1,.33a17.49,17.49,0,0,1-3.17.63,18.1,18.1,0,0,1-2,.1,19,19,0,0,1-2.11-.15,18.4,18.4,0,0,1-4.25-1,21.88,21.88,0,0,1-3.92-2,18,18,0,0,1-3.2-2.6,16.44,16.44,0,0,1-2-2.54c-.23-.34-.39-.67-.51-.87A2.78,2.78,0,0,1,38.6,58.93Z"/><path class="cls-4" d="M66.58,38.15l.36.12c.21.09.56.2.93.37a16.7,16.7,0,0,1,2.8,1.62,11,11,0,0,1,1.53,1.3,19,19,0,0,1,1.47,1.69c.24.3.46.62.69,1s.4.68.59,1a18.59,18.59,0,0,1,1,2.22,22.22,22.22,0,0,1,.65,2.39,15.12,15.12,0,0,1,.24,2.39,13.26,13.26,0,0,1-.13,2.22,14.64,14.64,0,0,1-.42,2c-.17.6-.37,1.17-.56,1.67s-.39.94-.58,1.32-.37.68-.48.89l-.2.32-.32-.2c-.18-.14-.49-.33-.81-.6a12.61,12.61,0,0,1-1.11-1,14.47,14.47,0,0,1-1.19-1.33c-.39-.49-.8-1-1.16-1.59s-.69-1.15-1-1.72A18.39,18.39,0,0,1,68,52.41a17.4,17.4,0,0,1-.74-1.85c-.22-.63-.45-1.28-.62-1.94-.08-.33-.15-.67-.22-1s-.15-.66-.2-1a16.85,16.85,0,0,1-.23-2c0-.64,0-1.32-.06-2a16.07,16.07,0,0,1,.32-3.2,9.39,9.39,0,0,1,.24-1A3.73,3.73,0,0,1,66.58,38.15Z"/><path class="cls-4" d="M88.39,40.62a2.6,2.6,0,0,1,.13.34c.06.21.19.53.28.91a15,15,0,0,1,.46,3c0,.59,0,1.21,0,1.81a14.2,14.2,0,0,1-.13,1.83,18,18,0,0,1-.37,1.83,14.6,14.6,0,0,1-.59,1.84,16.69,16.69,0,0,1-1.81,3.39A17,17,0,0,1,85.24,57c-.4.46-.85.87-1.25,1.26a17.42,17.42,0,0,1-2.36,1.81c-.32.22-.63.37-.82.49l-.32.17s-.08-.11-.19-.3-.3-.49-.47-.85a11.9,11.9,0,0,1-.53-1.28,14.29,14.29,0,0,1-.44-1.61,14,14,0,0,1-.24-3.86A14.57,14.57,0,0,1,79,50.79a13.12,13.12,0,0,1,.63-2,19.62,19.62,0,0,1,.91-1.91,12.84,12.84,0,0,1,1.19-1.75A15.32,15.32,0,0,1,83,43.6a10,10,0,0,1,1.45-1.16A14.16,14.16,0,0,1,87.15,41a8.65,8.65,0,0,1,.9-.32Z"/><path class="cls-4" d="M31.73,109s0-.14.1-.39a8.5,8.5,0,0,1,.35-1.06,15.37,15.37,0,0,1,.69-1.5c.3-.55.66-1.13,1.08-1.75a20.09,20.09,0,0,1,3.28-3.62,25.81,25.81,0,0,1,2.17-1.59,17.08,17.08,0,0,1,2.4-1.36c.85-.39,1.71-.74,2.57-1,.43-.15.86-.3,1.3-.41L47,96a24.08,24.08,0,0,1,2.56-.31c.41,0,.81,0,1.2,0s.79,0,1.16.08a18.31,18.31,0,0,1,3.65.75c.44.14.79.3,1,.39L57,97l-.23.35c-.16.2-.39.54-.68.89a21.72,21.72,0,0,1-2.46,2.55l-1.65,1.43a22,22,0,0,1-1.87,1.38q-.5.33-1,.63l-1,.65c-.71.42-1.44.8-2.19,1.15s-1.51.68-2.27,1a21.8,21.8,0,0,1-2.32.78c-.76.24-1.52.45-2.27.61s-1.49.26-2.17.37-1.34.16-1.95.19-1.13.06-1.59,0-.86,0-1.11,0Z"/></g><path class="cls-5" d="M70.15,113.43a4.68,4.68,0,1,1-4.68-4.68A4.68,4.68,0,0,1,70.15,113.43Z"/><path class="cls-5" d="M96.55,113.43a4.69,4.69,0,1,1-4.69-4.68A4.69,4.69,0,0,1,96.55,113.43Z"/></g></g></svg>